<svg xmlns="http://www.w3.org/2000/svg" version="1.1" xmlns:xlink="http://www.w3.org/1999/xlink" xmlns:svgjs="http://svgjs.dev/svgjs" width="1000" height="287" viewBox="0 0 1000 287"><g transform="matrix(1,0,0,1,-0.6060606060606233,-0.35871227532157945)"><svg viewBox="0 0 396 114" data-background-color="#ffffff" preserveAspectRatio="xMidYMid meet" height="287" width="1000" xmlns="http://www.w3.org/2000/svg" xmlns:xlink="http://www.w3.org/1999/xlink"><g id="tight-bounds" transform="matrix(1,0,0,1,0.2400000000000091,0.14248501528453517)"><svg viewBox="0 0 395.52 113.71502996943093" height="113.71502996943093" width="395.52"><g><svg viewBox="0 0 395.52 113.71502996943093" height="113.71502996943093" width="395.52"><g transform="matrix(1,0,0,1,0,81.40083161399359)"><svg viewBox="0 0 395.52 32.31419835543734" height="32.31419835543734" width="395.52"><g id="textblocktransform"><svg viewBox="0 0 395.52 32.31419835543734" height="32.31419835543734" width="395.52" id="textblock"><g><rect width="175.45001304399906" height="1.5717412640830488" y="26.14284876145999" fill="#000000" data-fill-palette-color="tertiary"></rect><rect width="175.45001304399906" height="1.5717412640830488" y="26.14284876145999" x="220.06998695600092" fill="#000000" data-fill-palette-color="tertiary"></rect></g><g><svg viewBox="0 0 395.52 17.428734504646705" height="17.428734504646705" width="395.52"><g transform="matrix(1,0,0,1,0,0)"><svg width="395.52" viewBox="5 -28.75 652.399796875 28.75" height="17.428734504646705" data-palette-color="#025464"><g transform="matrix(1,0,0,1,0,0)"><g><svg width="15.626531250000003" viewBox="3.16 -36.36 89.68 36.36" height="6.336" data-palette-color="#025464" id="scriptelement" x="641.773265625" y="-28.75"><path d="M16.05 0L16.05 0 3.16 0 3.16-36.36 16.16-36.36Q21.64-36.36 25.6-34.19 29.56-32.01 31.7-27.95 33.84-23.88 33.84-18.22L33.84-18.22Q33.84-12.54 31.7-8.45 29.56-4.37 25.58-2.18 21.59 0 16.05 0ZM10.85-29.78L10.85-6.59 15.73-6.59Q19.14-6.59 21.48-7.8 23.81-9.02 24.99-11.59 26.17-14.15 26.17-18.22L26.17-18.22Q26.17-22.25 24.99-24.8 23.81-27.36 21.48-28.57 19.16-29.78 15.75-29.78L15.75-29.78 10.85-29.78ZM47.21 0L39.52 0 39.52-36.36 63.6-36.36 63.6-30.02 47.21-30.02 47.21-21.36 62-21.36 62-15.02 47.21-15.02 47.21 0ZM76.45 0L68.76 0 68.76-36.36 92.84-36.36 92.84-30.02 76.45-30.02 76.45-21.36 91.24-21.36 91.24-15.02 76.45-15.02 76.45 0Z" opacity="1" transform="matrix(1,0,0,1,0,0)" fill="#025464" class="undefined-123" data-fill-palette-color="primary" id="lv-123"></path></svg></g></g><path d="M5 0L5-28.75 21-28.75 21-23.1 11.3-23.1 11.3-5.85 21-5.85 21 0 5 0ZM39.45-3.4L39.45-25.3 33.8-28.75 23.45-28.75 23.45-23.1 33.15-23.1 33.15-5.85 23.45-5.85 23.45 0 33.8 0 39.45-3.4ZM47.45-28.75L47.45-28.75 53.75-28.75 53.75 0 47.45 0 47.45-28.75ZM61.75-3.4L61.75-25.3 67.59-28.75 77.95-28.75 77.95-22.85 68.25-22.85 68.25-5.65 77.75-5.65 77.75 0 67.59 0 61.75-3.4ZM89.9-19.45L96.4-19.45 96.4-25.3 90.55-28.75 80.2-28.75 80.2-22.85 89.9-22.85 89.9-19.45ZM96.4-3.4L96.4-17.2 80.2-17.2 80.2-11.5 89.9-11.5 89.9-5.65 80.4-5.65 80.4 0 90.55 0 96.4-3.4ZM104.39-28.75L104.39-28.75 110.69-28.75 110.69 0 104.39 0 104.39-28.75ZM150.64-28.75L150.64-23.1 136.24-23.1 136.24 0 129.34 0 129.34-23.1 116.19-23.1 116.19-28.75 150.64-28.75ZM155.54-25.3L155.54-25.3 161.24-28.75 171.54-28.75 171.54-23.1 161.84-23.1 161.84-17.2 171.54-17.2 171.54-11.5 161.84-11.5 161.84 0 155.54 0 155.54-25.3ZM189.99-25.3L189.99-25.3 184.09-28.75 173.79-28.75 173.79-23.1 183.69-23.1 183.69-17.2 173.79-17.2 173.79-11.5 183.69-11.5 183.69 0 189.99 0 189.99-25.3ZM198.99-28.75L198.99-28.75 205.29-28.75 205.29-5.85 214.79-5.85 214.79 0 198.99 0 198.99-28.75ZM217.44-5.85L217.44-5.85 217.44 0 233.44 0 233.44-5.85 217.44-5.85ZM253.93-28.75L253.93-28.75 269.93-28.75 269.93-22.85 260.23-22.85 260.23-17.2 269.93-17.2 269.93-11.35 260.23-11.35 260.23 0 253.93 0 253.93-28.75ZM288.38-22.85L288.38-22.85 288.38-28.75 272.38-28.75 272.38-22.85 288.38-22.85ZM280.48-11.35L280.48-11.35 280.48-17.2 272.38-17.2 272.38-11.35 280.48-11.35ZM292.88-25.3L292.88-25.3 298.73-28.75 309.08-28.75 309.08-23.1 299.18-23.1 299.18-5.85 308.88-5.85 308.88 0 298.73 0 292.88-3.4 292.88-25.3ZM327.33-25.3L327.33-25.3 321.68-28.75 311.33-28.75 311.33-23.1 321.03-23.1 321.03-5.85 311.33-5.85 311.33 0 321.68 0 327.33-3.4 327.33-25.3ZM336.32-28.75L336.32-28.75 352.32-28.75 352.32-22.85 342.63-22.85 342.63-17.2 352.32-17.2 352.32-11.35 342.63-11.35 342.63 0 336.32 0 336.32-28.75ZM370.77 0L370.77 0 370.77-11.9 366.07-14.35 370.77-16.6 370.77-25.3 364.88-28.75 354.57-28.75 354.57-22.85 364.47-22.85 364.47-17.2 354.57-17.2 354.57-11.35 364.47-11.35 364.47 0 370.77 0ZM394.27-28.75L394.27-28.75 410.27-28.75 410.27-22.85 400.57-22.85 400.57-17.2 410.27-17.2 410.27-11.35 400.57-11.35 400.57 0 394.27 0 394.27-28.75ZM428.72-22.85L428.72-22.85 428.72-28.75 412.72-28.75 412.72-22.85 428.72-22.85ZM420.82-11.35L420.82-11.35 420.82-17.2 412.72-17.2 412.72-11.35 420.82-11.35ZM433.22-28.75L433.22-28.75 439.52-28.75 439.52-5.85 449.22-5.85 449.22 0 438.92 0 433.22-3.4 433.22-28.75ZM467.67-28.75L467.67-28.75 461.37-28.75 461.37-5.85 451.67-5.85 451.67 0 462.02 0 467.67-3.4 467.67-28.75ZM507.61-28.75L507.61-23.1 493.21-23.1 493.21 0 486.31 0 486.31-23.1 473.16-23.1 473.16-28.75 507.61-28.75ZM513.11-28.75L513.11-28.75 519.41-28.75 519.41-5.85 529.11-5.85 529.11 0 518.81 0 513.11-3.4 513.11-28.75ZM547.56-28.75L547.56-28.75 541.26-28.75 541.26-5.85 531.56-5.85 531.56 0 541.91 0 547.56-3.4 547.56-28.75ZM556.56-28.75L556.56-28.75 572.56-28.75 572.56-22.85 562.86-22.85 562.86-17.2 572.56-17.2 572.56-11.35 562.86-11.35 562.86 0 556.56 0 556.56-28.75ZM591.01 0L591.01 0 591.01-11.9 586.31-14.35 591.01-16.6 591.01-25.3 585.11-28.75 574.81-28.75 574.81-22.85 584.71-22.85 584.71-17.2 574.81-17.2 574.81-11.35 584.71-11.35 584.71 0 591.01 0ZM599.51-28.75L599.51-28.75 615.51-28.75 615.51-22.85 605.81-22.85 605.81-17.2 615.51-17.2 615.51-11.5 605.81-11.5 605.81-5.65 615.31-5.65 615.31 0 599.51 0 599.51-28.75ZM617.96-5.65L617.96-5.65 617.96 0 633.96 0 633.96-5.65 617.96-5.65ZM633.96-22.85L633.96-22.85 633.96-28.75 617.76-28.75 617.76-22.85 633.96-22.85ZM625.86-11.5L625.86-11.5 625.86-17.2 617.76-17.2 617.76-11.5 625.86-11.5Z" opacity="1" transform="matrix(1,0,0,1,0,0)" fill="#025464" class="wordmark-text-0" data-fill-palette-color="primary" id="text-0"></path></svg></g></svg></g><g transform="matrix(1,0,0,1,175.45001304399906,21.543240431565682)"><svg viewBox="0 0 44.61997391200185 10.770957923871665" height="10.770957923871665" width="44.61997391200185"><g transform="matrix(1,0,0,1,8,0)"><svg width="28.619973912001853" viewBox="2.5 -35 93 35" height="10.770957923871665" data-palette-color="#eb9007"><path d="M2.5 0L2.5-0.75 5.5-1.5 5.5-33.5 2.5-34.25 2.5-35 15.25-35Q24.2-35 28.98-30.4 33.75-25.8 33.75-17.5L33.75-17.5Q33.75-9.2 28.98-4.6 24.2 0 15.25 0L15.25 0 2.5 0ZM13.75-1.25L15.25-1.25Q19.9-1.25 22.45-5.03 25-8.8 25-17.5L25-17.5Q25-26.2 22.45-29.98 19.9-33.75 15.25-33.75L15.25-33.75 13.75-33.75 13.75-1.25ZM38.25 0L38.25-0.75 41.25-1.5 41.25-33.5 38.25-34.25 38.25-35 65-35 65-26 63.5-26Q62.55-26.75 61.85-27.9L61.85-27.9Q60.25-30.6 60.25-33.75L60.25-33.75 49.5-33.75 49.5-18 55.25-18Q55.6-19.9 56.55-21.55L56.55-21.55Q56.95-22.3 57.5-23L57.5-23 59-23 59-11.75 57.5-11.75Q56.95-12.45 56.55-13.2L56.55-13.2Q55.6-14.85 55.25-16.75L55.25-16.75 49.5-16.75 49.5-1.5 52.5-0.75 52.5 0 38.25 0ZM68.75 0L68.75-0.75 71.75-1.5 71.75-33.5 68.75-34.25 68.75-35 95.5-35 95.5-26 94-26Q93.05-26.75 92.34-27.9L92.34-27.9Q90.75-30.6 90.75-33.75L90.75-33.75 80-33.75 80-18 85.75-18Q86.09-19.9 87.05-21.55L87.05-21.55Q87.45-22.3 88-23L88-23 89.5-23 89.5-11.75 88-11.75Q87.45-12.45 87.05-13.2L87.05-13.2Q86.09-14.85 85.75-16.75L85.75-16.75 80-16.75 80-1.5 83-0.75 83 0 68.75 0Z" opacity="1" transform="matrix(1,0,0,1,0,0)" fill="#eb9007" class="slogan-text-1" data-fill-palette-color="secondary" id="text-1"></path></svg></g></svg></g></svg></g></svg></g><g transform="matrix(1,0,0,1,161.17409011992217,0)"><svg viewBox="0 0 73.17181976015564 73.17181976015564" height="73.17181976015564" width="73.17181976015564"><g><svg></svg></g><g id="icon-0"><svg viewBox="0 0 73.17181976015564 73.17181976015564" height="73.17181976015564" width="73.17181976015564"><g><path d="M0 36.586c0-20.206 16.38-36.586 36.586-36.586 20.206 0 36.586 16.38 36.586 36.586 0 20.206-16.38 36.586-36.586 36.586-20.206 0-36.586-16.38-36.586-36.586zM36.586 71.6c19.338 0 35.014-15.676 35.014-35.014 0-19.338-15.676-35.014-35.014-35.014-19.338 0-35.014 15.676-35.014 35.014 0 19.338 15.676 35.014 35.014 35.014z" data-fill-palette-color="tertiary" fill="#000000" stroke="transparent"></path></g><g transform="matrix(1,0,0,1,20.46910742363124,20.46910742363124)"><svg viewBox="0 0 32.23360491289316 32.23360491289316" height="32.23360491289316" width="32.23360491289316"><g><svg xmlns="http://www.w3.org/2000/svg" viewBox="2 2 60 60" x="0" y="0" height="32.23360491289316" width="32.23360491289316" class="icon-z$-0" data-fill-palette-color="accent" id="z$-0"><g fill="#eb9007" data-fill-palette-color="accent"><path d="M59 2H5A3 3 0 0 0 2 5V47a3 3 0 0 0 3 3H25.382l-3 6H14a1 1 0 0 0-1 1v4a1 1 0 0 0 1 1H50a1 1 0 0 0 1-1V57a1 1 0 0 0-1-1H41.618l-3-6H59a3 3 0 0 0 3-3V5A3 3 0 0 0 59 2ZM14 8V36H4V14H9a1 1 0 0 0 1-1V8ZM48 8V38H16V8Zm6 0v4H50V8Zm6 0v4H56V8ZM54 28H50V24h4Zm-4 2H60v4H50Zm10-2H56V24h4ZM50 22V14H60v8ZM8 12H4V8H8ZM4 38H14v1a1 1 0 0 0 1 1H49a1 1 0 0 0 1-1V36H60v6H4ZM4 5A1 1 0 0 1 5 4H59a1 1 0 0 1 1 1V6H4ZM49 60H15V58H49Zm-9.618-4H24.618l3-6h8.764ZM60 47a1 1 0 0 1-1 1H5a1 1 0 0 1-1-1V44H60Z" fill="#eb9007" data-fill-palette-color="accent"></path><rect x="6" y="16" width="2" height="2" fill="#eb9007" data-fill-palette-color="accent"></rect><rect x="10" y="16" width="2" height="2" fill="#eb9007" data-fill-palette-color="accent"></rect><rect x="6" y="20" width="2" height="2" fill="#eb9007" data-fill-palette-color="accent"></rect><rect x="10" y="20" width="2" height="2" fill="#eb9007" data-fill-palette-color="accent"></rect><rect x="6" y="24" width="2" height="2" fill="#eb9007" data-fill-palette-color="accent"></rect><rect x="10" y="24" width="2" height="2" fill="#eb9007" data-fill-palette-color="accent"></rect><rect x="6" y="28" width="2" height="2" fill="#eb9007" data-fill-palette-color="accent"></rect><rect x="6" y="32" width="2" height="2" fill="#eb9007" data-fill-palette-color="accent"></rect><rect x="10" y="28" width="2" height="2" fill="#eb9007" data-fill-palette-color="accent"></rect><rect x="52" y="16" width="2" height="2" fill="#eb9007" data-fill-palette-color="accent"></rect><rect x="56" y="16" width="2" height="2" fill="#eb9007" data-fill-palette-color="accent"></rect><path d="M22.452 24.477C23.6 26.6 24.9 29 27.663 29s4.065-2.4 5.213-4.523C34.048 22.313 34.866 21 36.332 21s2.282 1.313 3.454 3.477C40.935 26.6 42.237 29 45 29V27c-1.466 0-2.283-1.313-3.455-3.477A18.372 18.372 0 0 0 39.986 21H43v2h2V17H43v2H29V17H27v6h2V21h3.677a18.372 18.372 0 0 0-1.559 2.523C29.946 25.687 29.128 27 27.663 27s-2.281-1.313-3.452-3.476C23.063 21.4 21.762 19 19 19v2C20.464 21 21.281 22.313 22.452 24.477Z" fill="#eb9007" data-fill-palette-color="accent"></path><path d="M37 28a4 4 0 1 0 4 4A4 4 0 0 0 37 28Zm0 6a2 2 0 1 1 2-2A2 2 0 0 1 37 34Z" fill="#eb9007" data-fill-palette-color="accent"></path><path d="M22 16a3 3 0 1 0-3-3A3 3 0 0 0 22 16Zm0-4a1 1 0 1 1-1 1A1 1 0 0 1 22 12Z" fill="#eb9007" data-fill-palette-color="accent"></path></g></svg></g></svg></g></svg></g></svg></g><g></g></svg></g><defs></defs></svg><rect width="395.52" height="113.71502996943093" fill="none" stroke="none" visibility="hidden"></rect></g></svg></g></svg>